<mxfile host="app.diagrams.net" modified="2023-09-05T17:27:02.143Z" agent="Mozilla/5.0 (Windows NT 10.0; Win64; x64) AppleWebKit/537.36 (KHTML, like Gecko) Chrome/116.0.0.0 Safari/537.36" etag="a5QW4IwqeZGEsqjXAU8j" version="21.3.6" type="github">
  <diagram name="Page-1" id="BjoBHYr_xkN5amUP1XsE">
    <mxGraphModel dx="2259" dy="780" grid="1" gridSize="10" guides="1" tooltips="1" connect="1" arrows="1" fold="1" page="1" pageScale="1" pageWidth="827" pageHeight="1169" math="0" shadow="0">
      <root>
        <mxCell id="0" />
        <mxCell id="1" parent="0" />
        <mxCell id="UEqu62Masll9EC-NCQHA-7" value="épaisseur des couches, conductivités, capacités" style="rounded=0;whiteSpace=wrap;html=1;" vertex="1" parent="1">
          <mxGeometry x="550" y="260" width="120" height="60" as="geometry" />
        </mxCell>
        <mxCell id="UEqu62Masll9EC-NCQHA-8" value="" style="endArrow=classic;html=1;rounded=0;strokeWidth=2;" edge="1" parent="1">
          <mxGeometry width="50" height="50" relative="1" as="geometry">
            <mxPoint x="400" y="330" as="sourcePoint" />
            <mxPoint x="400" y="380" as="targetPoint" />
          </mxGeometry>
        </mxCell>
        <mxCell id="UEqu62Masll9EC-NCQHA-9" value="" style="endArrow=classic;html=1;rounded=0;exitX=0.5;exitY=1;exitDx=0;exitDy=0;strokeWidth=2;" edge="1" parent="1">
          <mxGeometry width="50" height="50" relative="1" as="geometry">
            <mxPoint x="399.5" y="180" as="sourcePoint" />
            <mxPoint x="399.5" y="250" as="targetPoint" />
          </mxGeometry>
        </mxCell>
        <mxCell id="UEqu62Masll9EC-NCQHA-16" value="" style="edgeStyle=orthogonalEdgeStyle;rounded=0;orthogonalLoop=1;jettySize=auto;html=1;" edge="1" parent="1" source="UEqu62Masll9EC-NCQHA-22" target="UEqu62Masll9EC-NCQHA-15">
          <mxGeometry relative="1" as="geometry" />
        </mxCell>
        <mxCell id="UEqu62Masll9EC-NCQHA-10" value="Température, rayonnement solaire, rayonnement atmo&amp;nbsp;" style="text;html=1;align=center;verticalAlign=middle;resizable=0;points=[];autosize=1;strokeColor=none;fillColor=none;" vertex="1" parent="1">
          <mxGeometry x="240" y="150" width="320" height="30" as="geometry" />
        </mxCell>
        <mxCell id="UEqu62Masll9EC-NCQHA-15" value="Matrice" style="ellipse;whiteSpace=wrap;html=1;" vertex="1" parent="1">
          <mxGeometry x="-200" y="125" width="80" height="80" as="geometry" />
        </mxCell>
        <mxCell id="UEqu62Masll9EC-NCQHA-21" value="N lignes, 4 colonnes, durée total NxTs" style="text;html=1;align=center;verticalAlign=middle;resizable=0;points=[];autosize=1;strokeColor=none;fillColor=none;" vertex="1" parent="1">
          <mxGeometry x="-435" y="150" width="220" height="30" as="geometry" />
        </mxCell>
        <mxCell id="UEqu62Masll9EC-NCQHA-23" value="" style="edgeStyle=orthogonalEdgeStyle;rounded=0;orthogonalLoop=1;jettySize=auto;html=1;" edge="1" parent="1" source="UEqu62Masll9EC-NCQHA-10" target="UEqu62Masll9EC-NCQHA-22">
          <mxGeometry relative="1" as="geometry">
            <mxPoint x="200" y="165" as="sourcePoint" />
            <mxPoint x="-120" y="165" as="targetPoint" />
          </mxGeometry>
        </mxCell>
        <mxCell id="UEqu62Masll9EC-NCQHA-22" value="Echantillonage Ts" style="text;html=1;align=center;verticalAlign=middle;resizable=0;points=[];autosize=1;strokeColor=none;fillColor=none;" vertex="1" parent="1">
          <mxGeometry x="-50" y="150" width="120" height="30" as="geometry" />
        </mxCell>
        <mxCell id="UEqu62Masll9EC-NCQHA-27" value="" style="edgeStyle=orthogonalEdgeStyle;rounded=0;orthogonalLoop=1;jettySize=auto;html=1;" edge="1" parent="1" source="UEqu62Masll9EC-NCQHA-26" target="UEqu62Masll9EC-NCQHA-7">
          <mxGeometry relative="1" as="geometry" />
        </mxCell>
        <mxCell id="UEqu62Masll9EC-NCQHA-26" value="Modèle thermique" style="rhombus;whiteSpace=wrap;html=1;" vertex="1" parent="1">
          <mxGeometry x="360" y="250" width="80" height="80" as="geometry" />
        </mxCell>
        <mxCell id="UEqu62Masll9EC-NCQHA-34" value="" style="edgeStyle=orthogonalEdgeStyle;rounded=0;orthogonalLoop=1;jettySize=auto;html=1;" edge="1" parent="1" source="UEqu62Masll9EC-NCQHA-28" target="UEqu62Masll9EC-NCQHA-32">
          <mxGeometry relative="1" as="geometry">
            <mxPoint x="260" y="410" as="targetPoint" />
          </mxGeometry>
        </mxCell>
        <mxCell id="UEqu62Masll9EC-NCQHA-28" value="Champs de température avec discrétisation spatiale" style="whiteSpace=wrap;html=1;" vertex="1" parent="1">
          <mxGeometry x="340" y="380" width="120" height="60" as="geometry" />
        </mxCell>
        <mxCell id="UEqu62Masll9EC-NCQHA-31" value="Matrice maillage en fction du temps, et température en fonction du temps&amp;nbsp;" style="ellipse;whiteSpace=wrap;html=1;" vertex="1" parent="1">
          <mxGeometry x="-280" y="365" width="160" height="90" as="geometry" />
        </mxCell>
        <mxCell id="UEqu62Masll9EC-NCQHA-36" value="" style="edgeStyle=orthogonalEdgeStyle;rounded=0;orthogonalLoop=1;jettySize=auto;html=1;entryX=1;entryY=0.5;entryDx=0;entryDy=0;" edge="1" parent="1" source="UEqu62Masll9EC-NCQHA-32" target="UEqu62Masll9EC-NCQHA-31">
          <mxGeometry relative="1" as="geometry">
            <mxPoint x="-60" y="410" as="targetPoint" />
          </mxGeometry>
        </mxCell>
        <mxCell id="UEqu62Masll9EC-NCQHA-32" value="Elément discrets avec&lt;br&gt;&amp;nbsp;maillage adaptatif" style="text;html=1;align=center;verticalAlign=middle;resizable=0;points=[];autosize=1;strokeColor=none;fillColor=none;" vertex="1" parent="1">
          <mxGeometry x="10" y="390" width="140" height="40" as="geometry" />
        </mxCell>
      </root>
    </mxGraphModel>
  </diagram>
</mxfile>
